<svg width="60" height="60" viewBox="0 0 60 60" fill="none" xmlns="http://www.w3.org/2000/svg">
<g clip-path="url(#clip0_549_7)">
<path d="M27.419 55.5543C25.7795 57.71 24.1713 59.8349 22.5599 61.9577C22.5438 61.9789 22.4854 61.9706 22.2799 62C25.2762 54.1263 28.2446 46.3257 31.2356 38.4657C25.1531 38.4657 19.1507 38.4657 13 38.4657C22.2807 26.248 31.4901 14.124 40.6995 2C40.7557 2.02988 40.8118 2.05976 40.868 2.08963C37.881 9.93831 34.8939 17.787 31.8839 25.6959C37.9309 25.6959 43.8939 25.6959 49.8566 25.6959C49.9044 25.7421 49.9522 25.7882 50 25.8344C42.4975 35.7406 34.9792 45.6357 27.419 55.5543Z" fill="#0099FF"/>
</g>
<defs>
<clipPath id="clip0_549_7">
<rect width="60" height="60" fill="white"/>
</clipPath>
</defs>
</svg>
